<?xml version="1.0" standalone="no"?>
<!DOCTYPE svg PUBLIC "-//W3C//DTD SVG 20010904//EN"
 "http://www.w3.org/TR/2001/REC-SVG-20010904/DTD/svg10.dtd">
<svg version="1.0" xmlns="http://www.w3.org/2000/svg"
 width="500.000000pt" height="500.000000pt" viewBox="0 0 500.000000 500.000000"
 preserveAspectRatio="xMidYMid meet">

<g transform="translate(0.000000,500.000000) scale(0.100000,-0.100000)"
fill="#000000" stroke="none">
<path d="M2274 4820 c-36 -14 -54 -50 -54 -107 0 -44 5 -58 29 -85 22 -25 36
-32 63 -31 68 2 98 35 98 110 0 87 -65 142 -136 113z m91 -30 c12 -14 20 -41
23 -79 4 -54 2 -59 -23 -79 -34 -27 -65 -28 -96 -3 -18 14 -23 31 -27 78 -4
52 -1 64 17 82 28 28 82 28 106 1z"/>
<path d="M2526 4808 c-10 -48 -15 -198 -7 -198 15 0 21 29 21 102 0 49 4 68
12 66 6 -2 34 -42 62 -88 28 -46 56 -85 62 -87 7 -2 13 25 18 73 9 107 8 144
-4 144 -6 0 -10 -31 -10 -72 0 -40 -4 -79 -9 -87 -9 -13 -23 6 -100 132 -26
42 -39 47 -45 15z"/>
<path d="M2080 4775 c0 -29 29 -187 35 -193 14 -15 14 14 -1 99 -16 88 -34
138 -34 94z"/>
<path d="M2927 4678 c-13 -57 -20 -107 -16 -112 5 -5 33 -11 64 -14 48 -4 59
-1 81 18 44 42 52 123 16 164 -18 20 -40 30 -89 40 l-31 7 -25 -103z m120 57
c29 -19 37 -62 20 -110 -15 -42 -45 -65 -87 -65 -48 0 -55 12 -41 72 28 126
30 130 59 123 15 -3 37 -13 49 -20z"/>
<path d="M1863 4748 c-43 -11 -63 -43 -63 -99 0 -111 110 -166 172 -86 10 12
18 16 18 10 0 -7 4 -13 9 -13 6 0 5 15 0 38 -16 60 -17 62 -34 56 -12 -5 -13
-10 -6 -17 32 -32 -7 -97 -57 -97 -30 0 -65 30 -76 65 -16 55 -13 85 12 110
28 29 50 31 78 10 25 -19 45 -19 38 -1 -8 22 -55 34 -91 24z"/>
<path d="M3196 4605 c-20 -52 -36 -99 -36 -104 0 -11 108 -53 123 -48 6 2 -14
12 -44 24 -49 19 -54 23 -52 49 1 15 9 34 17 42 13 14 20 14 57 -1 58 -23 63
-12 5 12 -50 22 -51 24 -35 70 13 36 11 36 73 15 26 -9 49 -14 52 -12 4 5
-100 48 -116 48 -4 0 -24 -43 -44 -95z"/>
<path d="M1592 4655 c-30 -14 -52 -28 -50 -33 1 -5 19 -48 38 -96 19 -49 40
-91 47 -93 7 -3 28 2 47 11 19 9 38 16 44 16 5 0 15 7 22 15 10 12 -1 10 -44
-6 -64 -25 -74 -21 -82 33 -5 31 -3 36 17 41 13 3 33 13 44 22 18 14 17 14
-19 0 -53 -21 -62 -19 -76 15 -17 40 -9 54 39 70 42 13 64 31 39 29 -7 0 -37
-11 -66 -24z"/>
<path d="M1365 4544 c-16 -9 -40 -23 -53 -31 l-23 -14 37 -67 c20 -37 44 -79
51 -94 8 -16 19 -28 24 -28 6 0 9 3 7 8 -2 4 -13 24 -24 45 -19 38 -19 39 0
53 29 20 54 17 88 -11 16 -14 35 -25 41 -25 7 1 -5 16 -27 34 -31 26 -37 37
-31 55 11 34 -2 66 -30 79 -31 14 -23 15 -60 -4z m68 -25 c15 -25 1 -62 -32
-82 -16 -9 -34 -17 -39 -17 -9 0 -52 63 -52 76 0 2 15 13 33 24 36 23 75 23
90 -1z"/>
<path d="M3560 4552 c0 -5 11 -14 25 -20 14 -6 25 -17 25 -23 0 -6 -20 -48
-45 -93 -72 -133 -53 -128 26 7 38 64 67 84 84 57 7 -12 25 -13 25 -2 0 4 -32
24 -70 45 -39 21 -70 34 -70 29z"/>
<path d="M2335 4444 c-215 -18 -501 -97 -687 -189 -421 -209 -759 -566 -931
-985 -118 -285 -152 -469 -144 -784 5 -247 25 -374 88 -561 120 -356 323 -653
608 -890 l44 -36 149 148 148 148 395 3 395 3 0 169 0 170 -719 0 -720 0 -28
24 c-23 20 -28 32 -27 66 1 29 8 49 23 63 21 22 28 22 434 27 l412 5 0 110 0
110 -411 5 c-443 5 -431 4 -454 60 -10 24 -10 36 0 60 23 56 11 55 454 60
l411 5 3 113 3 112 -406 0 c-445 0 -440 -1 -465 60 -14 33 -6 66 23 98 l20 22
398 0 c219 0 404 3 413 6 13 5 16 25 16 115 l0 109 -399 0 c-230 0 -410 4
-425 10 -33 12 -59 63 -51 99 3 16 17 39 30 51 24 23 24 23 422 25 219 2 404
3 411 4 9 1 12 87 13 394 1 215 4 403 8 416 14 50 98 82 135 52 10 -8 17 -7
26 4 20 24 84 19 117 -9 l28 -24 5 -419 5 -418 33 -2 c64 -3 62 -13 62 431 l0
403 24 22 c19 18 34 22 82 21 33 -1 78 2 101 5 38 6 45 4 73 -23 l30 -30 0
-417 0 -416 40 4 c22 2 42 6 45 9 3 2 5 179 5 392 1 412 4 441 48 465 26 14
89 14 97 1 4 -7 14 -5 28 5 38 27 104 15 134 -24 9 -12 12 -120 13 -428 0
-227 3 -413 8 -414 45 -6 66 -4 78 8 12 12 14 82 14 414 l0 400 25 25 c21 21
35 25 83 25 31 0 81 1 110 2 90 3 88 10 97 -347 4 -168 4 -354 0 -414 -6 -87
-4 -110 7 -114 7 -3 195 -5 418 -4 l405 1 23 -22 c32 -32 31 -105 -3 -138
l-24 -25 -416 0 -416 0 3 -112 3 -113 412 0 411 0 26 -24 c33 -31 36 -96 7
-132 l-19 -24 -419 -5 -418 -5 0 -110 0 -110 412 0 411 0 26 -24 c53 -50 21
-159 -46 -162 -13 -1 -198 -2 -413 -2 l-390 -2 -1 -114 -1 -113 414 3 415 4
24 -28 c48 -56 17 -156 -48 -158 -13 0 -337 0 -720 1 l-698 1 0 -171 0 -170
323 -1 c177 0 354 0 392 1 l70 1 115 -116 c63 -63 119 -115 125 -115 12 0 110
93 189 180 266 292 439 699 477 1121 42 477 -121 1000 -428 1371 -88 107 -265
273 -370 347 -247 176 -526 290 -823 336 -97 16 -364 26 -455 19z"/>
<path d="M3735 4330 c-49 -33 -92 -65 -94 -72 -3 -8 6 -6 22 5 35 23 50 22 86
-9 22 -18 31 -34 31 -57 0 -16 3 -28 6 -25 9 10 62 203 57 211 -7 12 -16 8
-108 -53z m95 22 c0 -24 -33 -102 -43 -102 -7 1 -25 11 -40 24 l-29 23 38 32
c36 29 74 41 74 23z"/>
<path d="M1034 4321 c-65 -40 -81 -98 -44 -159 23 -38 78 -65 117 -58 38 7 92
63 99 104 9 46 -18 96 -61 116 -44 21 -73 20 -111 -3z"/>
<path d="M3931 4169 c-40 -44 -71 -82 -69 -84 2 -3 17 9 33 25 35 37 57 38 79
5 15 -22 15 -28 1 -61 -17 -40 -20 -74 -6 -59 5 6 14 27 21 48 10 31 16 37 40
37 33 0 70 33 70 62 0 17 -75 108 -89 108 -3 0 -39 -37 -80 -81z m124 26 c41
-42 29 -95 -22 -95 -12 0 -37 13 -55 29 l-33 30 29 30 c36 38 48 38 81 6z"/>
<path d="M4204 3980 c-23 -10 -69 -26 -103 -36 -67 -20 -82 -36 -26 -27 37 6
41 3 81 -54 15 -21 15 -25 0 -48 -9 -13 -16 -27 -16 -30 0 -16 21 11 60 77 24
40 49 82 57 94 22 34 -3 45 -53 24z m36 -21 c0 -18 -45 -89 -57 -89 -15 0 -55
50 -50 64 4 11 62 34 90 35 9 1 17 -4 17 -10z"/>
<path d="M4291 3754 c-81 -54 -105 -82 -40 -49 l32 17 35 -41 c25 -31 41 -41
63 -41 34 0 69 31 69 62 0 27 -47 108 -63 108 -7 -1 -50 -26 -96 -56z m122 7
c24 -42 22 -77 -7 -96 -19 -13 -29 -14 -45 -6 -27 15 -61 65 -53 78 7 11 72
53 82 53 3 0 13 -13 23 -29z"/>
<path d="M4393 3528 c-75 -10 -98 -23 -40 -23 28 0 35 -6 57 -48 l25 -48 -24
-18 c-13 -10 -22 -24 -19 -31 2 -7 39 25 86 75 45 48 79 91 76 96 -6 11 -64
10 -161 -3z m137 -11 c0 -7 -18 -30 -39 -51 l-40 -39 -20 34 c-26 43 -23 52
20 60 58 11 79 10 79 -4z"/>
<path d="M4502 3313 c-39 -19 -67 -70 -59 -105 8 -32 44 -68 67 -68 11 0 20 5
20 10 0 6 -9 10 -20 10 -26 0 -52 42 -48 77 6 51 114 92 168 63 27 -15 35 -63
15 -94 -10 -15 -13 -26 -7 -26 16 0 32 34 32 70 0 47 -38 80 -92 80 -24 0 -58
-8 -76 -17z"/>
<path d="M4532 3028 c39 -12 42 -17 53 -79 6 -31 3 -38 -19 -53 -14 -9 -26
-21 -26 -26 0 -10 173 94 191 116 6 8 9 17 5 21 -6 7 -86 18 -186 27 -53 5
-54 5 -18 -6z m161 -25 c9 -2 17 -8 17 -13 0 -13 -88 -63 -98 -56 -12 7 -24
65 -16 77 5 9 51 5 97 -8z"/>
</g>
</svg>
