<?xml version="1.0" standalone="no"?>
<!DOCTYPE svg PUBLIC "-//W3C//DTD SVG 20010904//EN"
 "http://www.w3.org/TR/2001/REC-SVG-20010904/DTD/svg10.dtd">
<svg version="1.0" xmlns="http://www.w3.org/2000/svg"
 width="500.000000pt" height="500.000000pt" viewBox="0 0 500.000000 500.000000"
 preserveAspectRatio="xMidYMid meet">

<g transform="translate(0.000000,500.000000) scale(0.100000,-0.100000)"
fill="#000000" stroke="none">
<path d="M2180 4744 c-117 -16 -317 -66 -455 -114 -194 -67 -462 -217 -639
-358 -93 -74 -288 -269 -359 -359 -257 -327 -431 -744 -481 -1159 -8 -61 -5
-63 79 -55 l59 6 13 95 c96 691 540 1301 1168 1605 318 154 583 215 935 215
352 0 617 -61 935 -215 483 -234 858 -645 1050 -1151 52 -137 99 -317 118
-454 l13 -95 63 -5 c34 -3 67 -2 72 1 6 3 5 34 -1 80 -69 495 -280 938 -615
1288 -346 362 -838 612 -1328 676 -148 19 -482 18 -627 -1z"/>
<path d="M2180 4571 c-875 -134 -1583 -824 -1740 -1693 -11 -61 -20 -126 -20
-145 l0 -33 275 0 274 0 6 38 c38 230 137 471 271 658 288 403 755 644 1248
644 270 0 514 -61 741 -185 397 -216 692 -616 775 -1050 7 -33 14 -70 16 -82
l4 -23 277 0 276 0 -7 68 c-22 235 -127 545 -263 781 -319 552 -895 940 -1521
1026 -155 21 -460 19 -612 -4z m228 -155 c2 -25 0 -36 -7 -31 -6 3 -11 15 -11
26 0 16 -7 19 -45 19 -45 0 -45 0 -45 -35 0 -28 4 -35 20 -35 11 0 20 7 20 15
0 27 17 15 24 -16 9 -48 8 -59 -9 -53 -8 4 -15 12 -15 20 0 8 -8 14 -18 14
-14 0 -17 -7 -14 -45 l4 -46 37 7 c45 8 51 12 51 30 0 8 5 14 10 14 6 0 10
-15 10 -34 0 -27 -4 -35 -17 -34 -10 0 -42 -1 -71 -2 -53 -3 -76 5 -54 19 19
12 6 152 -16 168 -21 17 -17 19 48 30 90 15 95 13 98 -31z m382 -3 c0 -37 -17
-45 -22 -10 -2 17 -10 23 -38 25 -72 6 -110 -83 -63 -145 27 -37 57 -40 88 -9
31 31 34 12 3 -21 -37 -40 -92 -23 -123 37 -24 46 -19 85 16 125 30 34 35 36
85 33 54 -3 54 -3 54 -35z m165 -14 c5 -6 3 -9 -7 -9 -18 0 -21 -7 -38 -94
-11 -52 -10 -61 4 -71 25 -19 19 -25 -16 -21 -18 3 -39 5 -45 5 -21 1 -15 21
7 21 14 0 21 9 25 38 4 20 10 56 14 79 7 37 6 43 -10 48 -11 4 -19 11 -19 16
0 11 70 1 85 -12z m-804 -30 c36 -39 46 -87 25 -127 -12 -23 -29 -35 -78 -51
-37 -13 -66 -17 -71 -12 -6 6 -1 13 11 20 19 10 20 13 6 68 -9 32 -18 68 -21
81 -4 17 -10 21 -24 17 -11 -4 -19 -2 -19 3 0 15 49 30 98 31 37 1 49 -4 73
-30z m969 -7 c78 -24 81 -27 68 -62 -13 -39 -32 -39 -25 -1 5 26 3 31 -25 40
-45 16 -53 14 -66 -14 -15 -33 -15 -32 7 -38 11 -2 24 0 30 6 13 13 14 -4 5
-51 -4 -21 -11 -29 -20 -25 -9 3 -12 13 -9 23 3 11 -1 20 -11 24 -20 8 -18 10
-33 -33 -13 -40 -8 -48 37 -57 24 -5 33 -3 38 10 3 9 10 16 15 16 13 0 11 -34
-4 -54 -12 -16 -15 -16 -59 3 -25 11 -48 18 -50 15 -3 -2 -13 5 -23 16 -15 17
-16 20 -3 20 11 0 25 26 43 75 23 61 25 78 15 90 -17 20 -1 20 70 -3z m215
-162 c4 -47 8 -89 9 -94 1 -6 17 17 34 49 18 33 30 65 28 72 -6 16 8 17 35 3
24 -13 25 -30 1 -30 -11 0 -31 -25 -57 -75 -22 -41 -43 -75 -47 -75 -10 0 -8
-10 -15 95 -3 50 -6 91 -8 93 -7 8 -66 -128 -60 -137 9 -16 -28 -13 -51 4 -19
14 -18 14 3 15 17 0 29 14 53 62 17 34 35 68 41 74 6 8 5 14 -6 18 -8 3 -15
12 -15 20 0 11 5 12 24 3 22 -11 25 -20 31 -97z m-1576 -11 c43 -40 79 -68 87
-65 23 9 15 -13 -11 -30 -13 -8 -29 -13 -36 -9 -8 6 -8 9 0 14 7 5 3 15 -14
31 -21 20 -29 22 -49 12 -36 -16 -43 -82 -8 -82 14 -1 12 -5 -7 -20 -25 -21
-51 -26 -51 -11 0 6 5 13 11 17 8 5 9 27 4 73 -14 123 -15 141 -7 141 4 0 40
-32 81 -71z m-244 -50 c-5 -15 5 -38 36 -84 36 -54 46 -62 61 -54 13 7 18 6
18 -3 0 -18 -67 -60 -75 -48 -4 6 0 13 8 16 18 6 11 22 -43 96 -28 40 -37 47
-58 41 -33 -8 -21 12 22 38 39 24 39 24 31 -2z m2128 -46 c5 -7 12 -11 18 -8
12 8 11 1 -3 -30 -14 -32 -32 -33 -24 -1 9 36 -24 60 -71 53 -20 -4 -45 -14
-54 -24 -24 -24 -34 -93 -17 -116 16 -22 54 -30 79 -16 11 5 19 6 19 1 0 -15
-56 -35 -77 -28 -24 8 -53 57 -53 91 0 55 36 97 99 115 27 8 68 -10 84 -37z
m128 -109 c27 -29 30 -35 13 -30 -29 9 -131 -109 -113 -130 7 -8 9 -17 6 -21
-8 -7 -77 44 -77 58 0 12 14 11 27 -2 13 -13 15 -12 80 67 37 44 41 53 28 64
-8 7 -12 16 -9 21 7 12 6 13 45 -27z m-2391 1 c5 -14 7 -31 4 -39 -4 -11 7
-18 38 -27 23 -7 51 -12 61 -11 21 1 22 -6 0 -30 -19 -21 -33 -23 -33 -5 0 15
-84 42 -100 32 -16 -10 27 -65 52 -65 25 0 19 -18 -11 -39 -23 -15 -23 -14
-17 7 4 12 3 22 -2 22 -6 0 -30 26 -54 58 -32 43 -48 57 -63 54 -15 -3 -10 6
19 32 49 44 92 49 106 11z m-170 -152 c0 -13 -3 -13 -24 0 -22 15 -25 14 -55
-17 l-31 -32 25 -24 c22 -21 28 -22 35 -10 5 8 10 23 10 33 0 15 3 15 35 -5
19 -13 35 -26 35 -30 0 -14 -21 -19 -34 -9 -10 8 -16 8 -24 -2 -9 -11 -5 -20
18 -42 l30 -29 25 24 c27 25 33 56 13 63 -7 2 -9 8 -5 13 9 9 36 -5 50 -27 11
-17 -73 -109 -100 -109 -13 0 -14 3 -6 8 9 6 -5 26 -46 66 -46 45 -64 57 -81
53 -28 -7 -24 -1 34 66 47 55 49 56 72 40 13 -8 24 -22 24 -30z m2730 -8 c0
-4 -20 -45 -45 -93 -27 -51 -43 -94 -39 -104 11 -35 -26 -12 -51 31 -6 11 -4
13 8 8 12 -4 21 3 33 24 14 29 14 32 -3 52 -10 12 -18 23 -18 24 -1 1 -17 -3
-37 -9 -26 -8 -35 -15 -31 -26 5 -12 2 -12 -15 -3 -20 11 -23 16 -22 39 1 4
13 5 27 4 14 -2 44 4 67 13 107 45 126 51 126 40z m-2909 -145 c24 -13 25 -33
1 -26 -13 4 -25 -3 -40 -24 -28 -37 -28 -37 7 -54 25 -13 31 -14 41 -1 6 8 9
23 5 36 -4 12 -3 20 1 17 46 -21 64 -33 64 -41 0 -5 -9 -7 -20 -4 -14 3 -24
-1 -31 -15 -9 -17 -7 -24 17 -44 18 -14 33 -19 39 -13 19 19 25 8 10 -20 -19
-39 -40 -52 -32 -22 4 17 0 24 -19 31 -13 5 -24 14 -24 20 0 6 -6 10 -12 8 -7
-1 -26 10 -42 25 -23 21 -32 25 -48 16 -32 -17 -29 -7 13 49 22 28 37 52 34
52 -3 0 -3 5 0 10 8 13 12 12 36 0z m3050 -37 c32 -41 41 -64 28 -79 -12 -15
-39 -19 -39 -6 0 4 5 13 11 19 13 13 4 49 -15 56 -28 11 -48 -18 -55 -78 -4
-33 -10 -66 -14 -73 -20 -31 -87 3 -87 44 0 16 -6 24 -17 24 -15 1 -14 4 6 20
33 28 38 25 37 -21 -1 -28 4 -45 16 -52 28 -18 48 8 48 63 0 33 6 55 21 74 24
30 40 33 60 9z"/>
<path d="M2040 4373 c0 -5 4 -24 9 -43 6 -19 15 -54 20 -76 11 -40 12 -41 43
-35 39 8 64 46 55 82 -11 42 -54 79 -92 79 -19 0 -35 -3 -35 -7z"/>
<path d="M1695 4204 c2 -16 3 -35 4 -43 1 -11 4 -11 16 -1 19 16 19 20 -4 49
l-18 24 2 -29z"/>
<path d="M1311 3981 c-21 -16 -22 -20 -10 -39 17 -27 31 -28 51 -4 11 12 13
24 7 40 -10 27 -17 27 -48 3z"/>
<path d="M3868 3789 c-22 -12 -23 -25 -4 -32 9 -3 21 4 30 19 18 26 6 32 -26
13z"/>
<path d="M2265 3994 c-399 -61 -792 -313 -1019 -653 -111 -167 -200 -383 -230
-560 l-12 -76 148 -3 c171 -3 161 8 103 -111 -19 -40 -35 -77 -35 -84 0 -14
38 -108 63 -154 9 -18 17 -37 17 -43 0 -6 -51 -10 -149 -10 l-148 0 8 -52 c37
-236 155 -498 314 -695 189 -235 468 -420 758 -502 156 -45 237 -55 417 -55
179 0 261 10 417 54 367 105 695 361 891 695 80 137 159 355 180 498 l9 57
-144 0 c-157 0 -160 2 -128 58 8 15 26 54 40 86 l25 59 -44 99 -44 98 148 0
147 0 -9 58 c-24 153 -107 377 -193 519 -198 326 -487 550 -865 671 -186 59
-456 78 -665 46z m616 -926 l30 -68 -45 -172 c-44 -172 -44 -173 -27 -213 17
-39 17 -42 -17 -177 l-34 -138 -124 0 -124 0 0 -170 0 -170 -150 0 -150 0 -35
70 -35 70 0 280 0 280 -36 72 -36 72 38 148 38 148 194 0 c186 0 194 1 199 20
5 20 12 20 145 18 l139 -3 30 -67z"/>
<path d="M2593 3090 c-5 -19 -16 -20 -201 -22 l-196 -3 -28 -110 c-15 -60 -28
-113 -28 -117 0 -4 15 -8 33 -10 l32 -3 3 -352 2 -353 120 0 120 0 0 175 0
175 128 0 128 0 26 105 25 105 -153 0 -154 0 0 75 0 75 145 0 144 0 10 38 c5
20 19 75 31 122 12 47 23 93 26 103 5 15 -4 17 -101 17 -98 0 -107 -2 -112
-20z"/>
<path d="M237 2590 c-4 -49 -4 -130 0 -180 l6 -90 513 0 c283 0 514 3 514 6 0
3 -17 43 -37 90 l-37 85 41 89 41 90 -517 0 -518 0 -6 -90z m433 -23 c0 -7 -9
-27 -20 -45 -25 -41 -25 -42 5 -42 14 0 25 -4 25 -10 0 -5 -21 -10 -46 -10
-46 0 -46 0 -30 23 45 61 55 82 46 91 -7 7 -17 6 -30 -2 -11 -7 -20 -8 -20 -3
0 6 8 14 17 20 20 11 53 -3 53 -22z m108 5 c16 -20 15 -35 -2 -77 -19 -46 -48
-46 -69 -2 -16 33 -14 70 6 95 12 15 47 7 65 -16z"/>
<path d="M717 2573 c-13 -12 -7 -69 8 -89 15 -19 15 -19 30 0 26 34 17 96 -14
96 -10 0 -21 -3 -24 -7z"/>
<path d="M3730 2676 c0 -2 18 -42 40 -90 l40 -87 -39 -90 -40 -89 520 0 519 0
-2 178 -3 177 -517 3 c-285 1 -518 1 -518 -2z m485 -90 c18 -13 17 -15 -8 -60
l-26 -46 24 0 c13 0 27 -4 30 -10 4 -6 -12 -10 -39 -10 -48 0 -57 9 -30 31 22
18 46 68 38 80 -3 6 -15 9 -25 6 -21 -6 -26 8 -6 16 19 8 22 8 42 -7z m91 -21
c1 -17 5 -42 9 -58 5 -17 3 -33 -5 -42 -15 -18 -46 -20 -56 -4 -4 7 0 9 13 5
27 -9 51 19 36 42 -6 10 -18 16 -27 14 -23 -4 -20 15 4 23 11 3 20 13 20 22 0
11 -6 14 -27 8 -23 -5 -25 -4 -13 10 20 25 45 14 46 -20z"/>
<path d="M443 2302 c-29 -4 -30 -31 -3 -178 105 -585 464 -1105 980 -1420 227
-138 509 -237 791 -279 141 -20 437 -20 578 0 615 90 1134 423 1475 947 158
243 289 604 313 865 5 57 4 63 -13 63 -114 2 -529 -2 -532 -5 -2 -2 -12 -45
-22 -97 -96 -488 -437 -912 -892 -1110 -727 -315 -1575 -30 -1961 659 -86 154
-139 301 -177 495 l-11 57 -252 3 c-139 2 -262 2 -274 0z m421 -379 c36 -107
37 -113 8 -113 -11 0 -12 3 -3 14 6 7 9 20 5 29 -5 13 -13 13 -65 -5 -32 -11
-59 -24 -59 -30 0 -5 -4 -6 -10 -3 -5 3 -10 16 -9 28 0 12 3 17 5 11 4 -8 21
-7 62 5 44 13 57 22 57 37 0 12 -8 20 -24 22 -19 3 -21 6 -10 13 22 14 36 11
43 -8z m3367 -10 c55 -33 62 -105 12 -124 -41 -16 -79 -10 -107 16 -29 26 -32
42 -15 79 20 44 65 56 110 29z m-3296 -163 c23 -45 11 -72 -28 -68 -29 3 -34
-1 -53 -40 -19 -38 -23 -41 -29 -23 -4 14 1 29 19 48 33 35 34 57 4 48 -13 -4
-29 -14 -36 -23 -11 -15 -14 -15 -22 -2 -13 21 -12 31 3 28 17 -4 117 41 117
52 0 18 9 10 25 -20z m3185 10 c0 -5 -6 -10 -14 -10 -7 0 -18 -6 -24 -13 -9
-10 1 -19 43 -40 30 -15 62 -24 70 -21 13 6 14 3 4 -20 -7 -14 -16 -26 -21
-26 -5 0 -7 4 -3 9 4 8 -91 71 -108 71 -15 0 -15 -35 -1 -51 19 -22 7 -25 -20
-6 -16 12 -16 16 11 65 17 32 34 52 45 52 10 0 18 -4 18 -10z m-3100 -171 c0
-5 -6 -6 -14 -3 -24 9 -106 -45 -106 -69 0 -20 -2 -19 -20 8 -24 36 -26 52 -5
35 12 -10 22 -8 55 14 22 14 44 26 50 26 7 0 9 9 5 23 l-6 22 20 -24 c12 -13
21 -27 21 -32z m3000 34 c0 -11 23 -32 57 -53 l57 -35 -73 -5 -73 -5 42 -28
c23 -15 46 -25 51 -21 15 9 10 -23 -6 -36 -12 -10 -15 -9 -15 4 0 22 -89 78
-113 70 -16 -5 -17 -3 -6 14 10 16 21 18 82 15 l71 -4 -42 31 c-23 16 -46 30
-52 30 -12 0 -12 3 -4 24 8 21 24 20 24 -1z m-2960 -90 c0 -9 -3 -13 -6 -10
-4 3 -26 -8 -50 -25 -35 -25 -44 -38 -44 -61 0 -28 2 -29 32 -23 18 4 49 20
69 36 27 21 39 26 48 17 13 -13 15 -31 1 -22 -5 3 -31 -6 -57 -20 -63 -33 -99
-33 -107 0 -8 31 5 52 55 89 21 17 39 34 39 39 0 4 5 5 10 2 6 -3 10 -13 10
-22z m2874 -59 c22 -9 20 -27 -2 -20 -23 8 -57 -27 -48 -49 7 -19 42 -15 39 3
-4 15 6 15 36 -2 15 -8 20 -16 12 -20 -6 -4 -15 -5 -20 -1 -21 12 -19 -14 3
-34 l23 -22 17 26 c14 21 15 29 5 41 -9 11 -8 14 4 14 8 0 20 -7 27 -15 10
-12 9 -18 -5 -31 -9 -9 -23 -27 -32 -40 -14 -21 -42 -36 -29 -16 7 11 -78 82
-98 82 -22 0 -20 6 12 51 29 41 31 42 56 33z m-2791 -137 c-12 -34 -20 -63
-19 -64 6 -7 75 53 76 66 0 11 3 11 15 1 20 -16 20 -41 0 -34 -9 4 -35 -11
-65 -36 -55 -46 -60 -41 -30 39 12 29 19 55 17 57 -1 2 -23 -15 -47 -37 -39
-36 -45 -38 -59 -24 -14 13 -14 15 3 15 10 0 37 16 61 35 33 28 42 41 38 58
-5 21 -5 21 13 4 18 -17 18 -19 -3 -80z m2732 -46 c29 -25 40 -30 51 -20 19
15 18 4 -2 -26 -17 -26 -37 -34 -29 -12 6 16 -3 28 -46 60 -25 19 -42 25 -55
20 -17 -6 -18 -5 -4 13 24 30 34 34 41 16 4 -10 24 -33 44 -51z m-109 -8 c-9
-23 70 -104 93 -95 13 4 12 1 -3 -16 -24 -28 -32 -28 -40 1 -3 12 -19 36 -37
52 -31 30 -31 30 -24 5 4 -14 16 -41 26 -60 24 -44 12 -49 -46 -17 l-45 25 32
-39 c18 -22 38 -37 45 -35 21 8 15 -12 -7 -24 -15 -8 -20 -8 -20 3 0 22 -71
99 -86 93 -18 -7 -18 8 0 23 11 10 24 6 63 -18 50 -32 64 -28 40 11 -27 42
-30 68 -11 89 21 23 28 24 20 2z m-2498 -40 c-25 -27 -25 -46 -1 -52 21 -6 21
-6 2 -30 -19 -23 -19 -23 -19 -2 0 29 -28 38 -45 15 -7 -10 -11 -22 -9 -26 8
-12 -11 -9 -24 4 -9 9 -4 17 20 35 18 13 28 23 24 23 -5 0 3 9 18 21 20 16 25
27 20 43 -6 20 -5 20 12 4 16 -16 16 -19 2 -35z m49 -17 c17 -17 19 -26 11
-34 -16 -16 -33 -15 -20 1 8 10 6 16 -9 25 -19 12 -26 32 -11 32 4 0 17 -11
29 -24z m2297 -90 c-7 -19 63 -96 82 -89 21 8 17 -7 -8 -28 -25 -22 -46 -25
-29 -5 16 19 -55 103 -84 98 -18 -3 -18 -1 4 18 27 23 43 26 35 6z m-2194 -3
c0 -5 -9 -35 -20 -67 -11 -33 -17 -68 -14 -79 5 -16 3 -17 -14 -8 -28 15 -35
28 -18 34 23 9 26 46 5 57 -21 12 -59 -2 -59 -21 0 -6 -7 -6 -20 1 -22 12 -28
35 -6 27 7 -3 40 10 72 28 62 35 74 40 74 28z m2128 -53 c13 -21 3 -27 -14
-10 -15 15 -54 -17 -54 -45 0 -37 10 -55 41 -71 44 -22 76 -2 69 46 -1 12 1
13 12 2 10 -10 10 -17 -2 -40 -35 -62 -131 -25 -133 52 -1 28 4 42 18 52 11 7
25 18 30 23 15 14 19 13 33 -9z m-2029 -9 c11 -7 13 -25 8 -77 l-5 -69 29 35
c16 19 29 42 29 52 0 16 3 17 20 8 22 -12 28 -34 8 -28 -7 3 -30 -19 -51 -49
-21 -29 -41 -53 -43 -53 -3 0 -4 32 -1 70 3 39 3 70 1 70 -8 0 -54 -81 -54
-95 0 -19 -14 -19 -30 0 -8 10 -9 15 -1 15 15 0 84 104 71 108 -12 4 -14 22
-2 22 4 0 13 -4 21 -9z m1922 -115 c47 -77 1 -144 -76 -112 -38 16 -55 42 -55
83 0 38 11 52 46 62 41 11 63 3 85 -33z m-1738 -1 c28 -20 37 -32 37 -55 0
-74 -43 -104 -114 -79 -40 14 -61 38 -31 35 20 -1 68 81 61 107 -6 23 3 22 47
-8z m1551 -39 c-3 -8 6 -42 19 -75 14 -34 22 -61 18 -61 -9 0 -95 63 -99 72
-2 5 -8 8 -12 8 -11 0 29 -92 43 -101 5 -4 1 -12 -11 -18 -27 -15 -37 -14 -24
2 15 18 -29 123 -51 119 -23 -4 -22 14 1 20 11 3 36 -7 58 -23 77 -56 76 -56
57 -7 -9 24 -20 48 -24 54 -10 13 -2 24 17 24 8 0 11 -6 8 -14z m-1343 -73
c28 -74 -82 -153 -125 -91 -19 27 -20 87 -2 110 34 45 106 35 127 -19z m1183
-15 c67 -60 10 -172 -67 -132 -33 18 -47 43 -47 88 0 62 65 87 114 44z m-994
-19 c39 -8 50 -15 46 -26 -3 -8 -6 -19 -6 -24 0 -5 -5 -9 -11 -9 -6 0 -8 7 -5
17 4 9 1 20 -6 25 -22 13 -55 9 -62 -8 -8 -22 2 -36 23 -29 15 4 17 0 13 -25
-5 -35 -17 -39 -26 -8 -6 27 -21 16 -31 -23 -6 -24 -3 -27 25 -31 21 -3 34 0
37 9 8 20 22 5 16 -18 -3 -11 -11 -18 -19 -15 -7 3 -29 8 -48 12 -33 6 -61 24
-38 24 12 0 36 115 28 129 -9 14 0 14 64 0z m833 -38 c-2 -3 -9 4 -16 13 -18
24 -50 14 -65 -20 -17 -35 -15 -47 9 -78 26 -33 58 -31 76 4 11 22 13 23 13 4
0 -52 -64 -61 -104 -13 -30 35 -32 49 -11 88 10 20 26 32 52 38 34 8 39 7 44
-11 3 -12 4 -23 2 -25z m-707 -13 c9 -17 22 -47 29 -67 l12 -36 11 49 c5 27 8
55 5 63 -6 15 15 17 37 3 13 -8 13 -10 -1 -10 -12 0 -19 -18 -29 -70 -7 -38
-16 -67 -20 -65 -4 2 -18 33 -30 67 l-24 63 -8 -40 c-5 -22 -7 -50 -5 -62 3
-19 0 -23 -19 -23 -13 0 -24 5 -24 10 0 6 4 10 9 10 5 0 15 25 21 56 11 50 10
57 -7 69 -17 14 -17 14 4 15 15 0 28 -10 39 -32z m323 -25 l0 -28 -16 23 c-15
21 -63 31 -63 13 0 -5 -3 -17 -7 -27 -5 -14 -2 -16 20 -10 25 6 27 4 27 -26
-1 -30 -2 -31 -14 -15 -19 25 -31 21 -34 -13 -2 -28 0 -30 33 -30 26 0 35 4
35 17 0 12 3 14 11 6 6 -6 8 -19 5 -29 -5 -16 -14 -18 -61 -16 -30 2 -55 8
-55 13 0 5 5 9 10 9 14 0 12 114 -2 128 -9 9 2 12 50 12 61 0 62 0 61 -27z
m88 20 c-14 -4 -17 -13 -13 -51 2 -26 5 -55 5 -64 2 -29 71 -20 71 8 0 8 5 14
10 14 6 0 10 -11 10 -25 0 -17 -6 -25 -17 -26 -10 0 -36 -2 -58 -5 l-40 -4 0
70 c0 52 -4 73 -15 80 -11 7 -4 9 25 9 22 -1 32 -3 22 -6z"/>
<path d="M4147 1892 c-38 -41 -7 -92 56 -92 35 0 67 21 67 43 -1 20 -25 46
-54 57 -38 14 -50 13 -69 -8z"/>
<path d="M891 1736 c-15 -18 -3 -46 20 -46 19 0 24 16 13 44 -8 20 -18 20 -33
2z"/>
<path d="M1375 1107 c-14 -11 -15 -16 -5 -22 11 -7 29 9 30 28 0 10 -3 9 -25
-6z"/>
<path d="M3348 969 c-12 -6 -18 -22 -18 -44 0 -63 90 -104 110 -50 11 29 5 51
-23 83 -22 24 -42 27 -69 11z"/>
<path d="M1652 897 c-27 -47 -29 -53 -14 -64 22 -18 46 -16 65 5 27 30 26 86
-2 102 -17 8 -23 3 -49 -43z"/>
<path d="M1809 862 c-16 -13 -22 -29 -22 -55 0 -89 83 -91 103 -2 8 35 7 42
-11 58 -27 22 -41 22 -70 -1z"/>
<path d="M3035 832 c-27 -5 -33 -12 -39 -45 -7 -38 37 -89 73 -85 35 4 49 44
31 87 -14 36 -35 50 -65 43z"/>
<path d="M257 2293 c-14 -3 -16 -12 -13 -36 3 -18 10 -66 16 -107 55 -368 226
-757 466 -1063 79 -99 283 -301 379 -374 332 -251 687 -402 1076 -458 143 -20
495 -20 638 0 389 56 744 207 1076 458 96 73 300 275 379 374 143 183 275 419
356 637 72 196 145 550 117 568 -6 5 -39 7 -72 6 l-59 -3 -13 -95 c-96 -690
-540 -1301 -1168 -1605 -318 -154 -583 -215 -935 -215 -352 0 -617 61 -935
215 -628 304 -1072 914 -1168 1605 l-13 95 -54 2 c-30 0 -63 -1 -73 -4z"/>
</g>
</svg>
