<?xml version="1.0" standalone="no"?>
<!DOCTYPE svg PUBLIC "-//W3C//DTD SVG 20010904//EN"
 "http://www.w3.org/TR/2001/REC-SVG-20010904/DTD/svg10.dtd">
<svg version="1.0" xmlns="http://www.w3.org/2000/svg"
 width="500.000000pt" height="500.000000pt" viewBox="0 0 500.000000 500.000000"
 preserveAspectRatio="xMidYMid meet">

<g transform="translate(0.000000,500.000000) scale(0.100000,-0.100000)"
fill="#000000" stroke="none">
<path d="M2292 4860 c-338 -33 -698 -142 -954 -290 -667 -386 -1108 -1046
-1199 -1795 -15 -125 -15 -431 0 -550 95 -738 502 -1368 1136 -1757 263 -161
582 -274 900 -320 139 -19 534 -17 674 5 348 55 670 177 944 361 167 111 260
188 398 326 428 432 660 973 676 1575 9 326 -22 550 -116 833 -174 528 -531
977 -1006 1268 -284 174 -565 277 -880 325 -151 22 -437 32 -573 19z"/>
</g>
</svg>
