<?xml version="1.0" standalone="no"?>
<!DOCTYPE svg PUBLIC "-//W3C//DTD SVG 20010904//EN"
 "http://www.w3.org/TR/2001/REC-SVG-20010904/DTD/svg10.dtd">
<svg version="1.0" xmlns="http://www.w3.org/2000/svg"
 width="500.000000pt" height="500.000000pt" viewBox="0 0 500.000000 500.000000"
 preserveAspectRatio="xMidYMid meet">

<g transform="translate(0.000000,500.000000) scale(0.100000,-0.100000)"
fill="#000000" stroke="none">
<path d="M2225 4890 c-314 -46 -516 -106 -770 -230 -434 -212 -770 -514 -1005
-905 -93 -153 -148 -264 -204 -414 -316 -832 -134 -1788 466 -2448 370 -409
894 -689 1438 -770 163 -24 524 -24 677 0 375 60 707 188 1005 388 592 398
978 1043 1049 1753 14 147 7 464 -15 598 -40 251 -134 542 -234 728 -60 111
-89 160 -135 230 -181 271 -420 511 -682 682 -219 144 -434 242 -680 311 -232
65 -340 80 -610 83 -132 1 -267 -1 -300 -6z m500 -43 c17 -3 57 -8 90 -12 152
-17 482 -105 470 -125 -3 -4 4 -6 14 -3 17 4 239 -86 269 -110 7 -6 39 -24 71
-41 85 -45 164 -93 186 -113 18 -16 59 -47 165 -125 114 -83 377 -373 436
-478 10 -19 21 -37 24 -40 12 -10 55 -75 76 -114 56 -103 94 -180 94 -193 0
-7 5 -13 10 -13 6 0 10 -5 10 -11 0 -6 6 -25 14 -42 32 -77 40 -98 76 -207 21
-63 43 -142 50 -175 6 -33 18 -87 25 -120 22 -96 30 -206 30 -420 0 -219 -8
-338 -30 -430 -8 -33 -18 -80 -24 -105 -18 -88 -42 -175 -52 -192 -5 -10 -9
-27 -9 -38 0 -11 -4 -20 -10 -20 -5 0 -10 -10 -10 -22 0 -13 -7 -36 -15 -52
-8 -15 -15 -35 -15 -42 0 -8 -4 -14 -10 -14 -5 0 -10 -7 -10 -16 0 -9 -9 -33
-19 -53 -11 -20 -28 -54 -38 -76 -30 -68 -157 -273 -177 -287 -6 -4 -7 -8 -2
-8 5 0 -1 -8 -12 -19 -12 -10 -22 -23 -22 -30 0 -6 -4 -11 -10 -11 -5 0 -10
-6 -10 -12 0 -17 -99 -124 -110 -121 -5 2 -7 -3 -4 -10 2 -7 -40 -56 -93 -109
-142 -139 -163 -158 -173 -158 -6 0 -10 -5 -10 -11 0 -6 -7 -8 -16 -5 -8 3
-13 2 -9 -3 3 -5 -9 -20 -27 -32 -18 -13 -37 -27 -43 -31 -5 -5 -32 -23 -60
-40 -27 -18 -52 -35 -55 -39 -17 -23 -370 -201 -386 -195 -8 3 -14 2 -14 -3 0
-5 -17 -15 -37 -24 -43 -16 -237 -75 -268 -80 -11 -2 -28 -7 -38 -12 -9 -4
-26 -5 -37 -2 -11 3 -18 1 -14 -4 3 -5 -5 -10 -18 -11 -41 -2 -72 -7 -118 -18
-25 -6 -144 -13 -265 -16 -177 -5 -246 -3 -355 10 -182 23 -470 93 -453 110 4
4 0 4 -9 1 -9 -4 -32 0 -50 8 -18 8 -61 26 -95 39 -35 12 -63 26 -63 30 0 5
-6 8 -14 8 -22 0 -136 56 -129 64 3 3 -6 6 -20 6 -15 0 -27 4 -27 8 0 5 -18
17 -39 28 -22 10 -37 22 -35 26 3 4 -1 6 -8 3 -7 -3 -25 6 -40 20 -15 14 -31
25 -35 25 -4 1 -34 20 -65 43 -31 23 -82 60 -112 82 -34 25 -55 48 -56 60 0
14 -3 16 -8 8 -6 -9 -19 -1 -45 27 -20 23 -37 38 -37 34 0 -3 -7 -1 -15 6 -9
7 -14 15 -11 17 6 6 -39 49 -59 57 -11 4 -15 13 -12 26 3 12 1 17 -5 14 -11
-7 -22 4 -91 89 -26 33 -44 64 -40 69 3 6 2 8 -4 5 -12 -8 -73 65 -73 88 0 10
-5 13 -12 9 -7 -5 -9 0 -6 14 4 15 2 19 -9 15 -10 -4 -14 -1 -11 7 2 7 -8 26
-23 43 -15 16 -40 54 -55 85 -16 32 -35 63 -41 70 -12 13 -17 27 -14 44 0 5
-4 8 -9 8 -6 0 -10 8 -10 18 0 9 -7 26 -15 36 -8 11 -15 28 -15 38 0 10 -5 18
-12 18 -6 0 -8 3 -5 6 4 4 -2 23 -12 43 -19 35 -57 135 -81 213 -6 21 -9 48
-5 60 4 15 3 19 -3 10 -6 -9 -12 4 -21 40 -23 103 -40 204 -46 268 -4 36 -9
90 -12 120 -19 200 16 618 55 664 10 11 11 16 5 12 -15 -9 -16 6 -4 48 5 17
17 58 26 91 9 33 20 69 24 80 24 60 39 110 40 134 1 7 7 11 14 8 9 -3 14 4 14
22 0 30 24 91 35 91 4 0 5 8 1 18 -6 15 -3 14 17 -3 l24 -20 -15 24 c-15 24
-14 29 21 94 21 38 45 77 54 88 9 11 16 24 16 29 0 6 16 32 36 60 20 27 33 50
29 50 -3 0 0 6 7 13 7 8 33 41 58 75 24 33 48 58 52 56 4 -3 8 1 8 9 0 7 9 23
20 35 11 12 20 23 20 26 0 12 142 153 230 229 52 45 105 90 117 101 12 11 47
36 77 56 30 21 53 40 51 44 -3 3 -2 4 1 2 3 -2 40 17 82 42 42 26 104 60 137
77 33 16 62 32 65 35 3 4 28 15 55 25 28 10 55 22 61 27 15 11 314 117 332
118 2 0 1 -4 -3 -9 -3 -5 7 -4 22 4 41 19 232 54 363 66 85 7 378 5 435 -4z"/>
<path d="M2057 4759 c4 -13 8 -18 11 -10 2 7 -1 18 -6 23 -8 8 -9 4 -5 -13z"/>
<path d="M2060 4696 c0 -2 7 -7 16 -10 8 -3 12 -2 9 4 -6 10 -25 14 -25 6z"/>
<path d="M3065 4660 c3 -5 11 -10 16 -10 6 0 7 5 4 10 -3 6 -11 10 -16 10 -6
0 -7 -4 -4 -10z"/>
<path d="M1818 4653 c7 -3 16 -2 19 1 4 3 -2 6 -13 5 -11 0 -14 -3 -6 -6z"/>
<path d="M1915 4650 c-3 -5 -1 -10 4 -10 6 0 11 5 11 10 0 6 -2 10 -4 10 -3 0
-8 -4 -11 -10z"/>
<path d="M2295 4599 c-4 -6 -5 -12 -2 -15 2 -3 7 2 10 11 7 17 1 20 -8 4z"/>
<path d="M1971 4564 c0 -11 3 -14 6 -6 3 7 2 16 -1 19 -3 4 -6 -2 -5 -13z"/>
<path d="M3430 4499 c0 -5 5 -7 10 -4 6 3 10 8 10 11 0 2 -4 4 -10 4 -5 0 -10
-5 -10 -11z"/>
<path d="M3411 4464 c0 -11 3 -14 6 -6 3 7 2 16 -1 19 -3 4 -6 -2 -5 -13z"/>
<path d="M3638 4423 c7 -3 16 -2 19 1 4 3 -2 6 -13 5 -11 0 -14 -3 -6 -6z"/>
<path d="M3665 4400 c3 -5 8 -10 11 -10 2 0 4 5 4 10 0 6 -5 10 -11 10 -5 0
-7 -4 -4 -10z"/>
<path d="M1440 4391 c0 -6 4 -13 10 -16 6 -3 7 1 4 9 -7 18 -14 21 -14 7z"/>
<path d="M2936 4365 c-3 -8 -1 -15 4 -15 6 0 10 7 10 15 0 8 -2 15 -4 15 -2 0
-6 -7 -10 -15z"/>
<path d="M3186 4363 c-6 -14 -5 -15 5 -6 7 7 10 15 7 18 -3 3 -9 -2 -12 -12z"/>
<path d="M1480 4364 c0 -5 7 -18 15 -28 8 -11 15 -16 15 -10 0 5 -7 18 -15 28
-8 11 -15 16 -15 10z"/>
<path d="M1616 4345 c-9 -26 -7 -32 5 -12 6 10 9 21 6 23 -2 3 -7 -2 -11 -11z"/>
<path d="M2678 4333 c7 -3 16 -2 19 1 4 3 -2 6 -13 5 -11 0 -14 -3 -6 -6z"/>
<path d="M3035 4319 c-4 -6 -5 -12 -2 -15 2 -3 7 2 10 11 7 17 1 20 -8 4z"/>
<path d="M3460 4310 c0 -5 5 -10 11 -10 5 0 7 5 4 10 -3 6 -8 10 -11 10 -2 0
-4 -4 -4 -10z"/>
<path d="M2158 4303 c7 -3 16 -2 19 1 4 3 -2 6 -13 5 -11 0 -14 -3 -6 -6z"/>
<path d="M3860 4276 c0 -2 8 -10 18 -17 15 -13 16 -12 3 4 -13 16 -21 21 -21
13z"/>
<path d="M1526 4247 c3 -10 9 -15 12 -12 3 3 0 11 -7 18 -10 9 -11 8 -5 -6z"/>
<path d="M1290 4196 c0 -2 7 -9 15 -16 13 -11 14 -10 9 4 -5 14 -24 23 -24 12z"/>
<path d="M2231 4185 c-216 -35 -385 -94 -587 -204 -38 -21 -137 -83 -144 -91
-3 -3 -25 -21 -50 -40 -81 -62 -211 -186 -255 -244 -17 -21 -39 -48 -50 -61
-11 -12 -26 -31 -32 -41 -7 -10 -31 -45 -52 -76 -39 -55 -135 -245 -161 -318
-7 -19 -19 -48 -25 -65 -16 -37 -60 -235 -74 -330 -24 -155 -12 -410 25 -580
26 -114 110 -356 139 -395 6 -8 21 -35 34 -60 44 -82 159 -244 220 -310 34
-35 61 -68 61 -72 0 -4 5 -8 11 -8 6 0 9 -7 6 -14 -4 -9 -1 -13 6 -10 7 2 39
-21 72 -51 125 -115 375 -261 545 -319 41 -14 131 -39 200 -56 109 -27 149
-31 305 -36 217 -6 438 19 556 64 13 5 42 15 64 22 130 40 375 170 450 239 19
17 37 31 40 31 16 0 295 273 295 289 0 5 9 19 20 32 12 12 31 39 43 59 12 19
29 44 39 54 16 17 95 173 141 276 34 76 67 194 92 331 26 136 27 156 22 354
-3 116 -9 224 -15 240 -5 17 -17 64 -27 105 -18 81 -48 177 -69 225 -47 107
-155 308 -188 350 -22 28 -50 67 -63 87 -38 57 -202 218 -290 283 -22 17 -46
35 -53 42 -45 43 -322 193 -356 193 -7 0 -16 4 -22 9 -13 12 -153 55 -264 81
-79 19 -131 23 -310 26 -150 2 -240 -1 -299 -11z m469 -69 c397 -53 746 -239
1008 -536 105 -119 161 -203 237 -355 156 -308 207 -649 149 -995 -65 -385
-275 -743 -589 -1000 -206 -169 -474 -288 -755 -336 -125 -21 -374 -23 -495
-4 -632 99 -1138 536 -1321 1140 -49 161 -67 286 -67 475 -2 439 163 839 472
1145 365 363 861 532 1361 466z"/>
<path d="M3183 3503 l-33 -4 -1 -77 c-1 -150 -25 -681 -30 -687 -3 -3 -37 18
-75 46 -124 93 -278 212 -318 246 -22 18 -45 33 -51 33 -7 0 -8 -29 -2 -102 4
-57 7 -123 5 -147 l-3 -44 -57 44 c-196 151 -327 249 -332 249 -3 0 -6 -67 -6
-150 0 -82 -3 -150 -6 -150 -4 0 -52 31 -108 69 -56 37 -155 105 -221 149
l-120 81 -6 -85 c-3 -47 -8 -253 -10 -457 l-4 -372 25 0 c22 0 26 5 31 45 4
25 7 180 8 345 1 272 7 405 18 405 2 0 98 -63 213 -140 115 -77 217 -143 225
-146 13 -5 15 13 15 135 0 106 3 141 13 141 6 0 97 -65 201 -145 104 -80 192
-145 197 -145 5 0 7 10 5 23 -2 13 -7 79 -11 147 -7 103 -6 122 6 114 8 -4 86
-63 175 -130 88 -68 178 -131 198 -141 60 -28 62 -21 71 274 4 142 10 314 14
383 l6 125 79 0 79 0 1 -694 c1 -627 3 -695 17 -704 9 -6 24 -7 33 -4 15 6 16
70 16 737 0 401 -1 730 -2 731 -18 3 -231 6 -255 2z"/>
<path d="M3634 2070 c-96 -79 -249 -141 -424 -172 -44 -8 -149 -13 -255 -12
-159 0 -194 3 -296 27 -409 95 -751 97 -993 6 -80 -29 -171 -85 -192 -116 -16
-25 -16 -26 2 -18 63 27 233 80 314 98 75 16 132 21 265 21 159 1 178 -1 295
-31 544 -137 978 -103 1228 97 50 40 119 126 109 136 -2 2 -26 -14 -53 -36z"/>
<path d="M1933 1870 c-130 -20 -268 -82 -352 -158 l-36 -33 50 24 c227 109
497 122 781 38 89 -27 97 -28 74 -9 -42 34 -175 96 -251 117 -85 24 -194 33
-266 21z"/>
<path d="M3901 4184 c0 -11 3 -14 6 -6 3 7 2 16 -1 19 -3 4 -6 -2 -5 -13z"/>
<path d="M1095 4150 c-3 -5 -2 -10 4 -10 5 0 13 5 16 10 3 6 2 10 -4 10 -5 0
-13 -4 -16 -10z"/>
<path d="M1480 4116 c0 -2 8 -10 18 -17 15 -13 16 -12 3 4 -13 16 -21 21 -21
13z"/>
<path d="M3565 4064 c-9 -15 -12 -23 -6 -20 11 7 35 46 28 46 -3 0 -12 -12
-22 -26z"/>
<path d="M1510 4061 c0 -6 4 -13 10 -16 6 -3 7 1 4 9 -7 18 -14 21 -14 7z"/>
<path d="M3976 4053 c-6 -14 -5 -15 5 -6 7 7 10 15 7 18 -3 3 -9 -2 -12 -12z"/>
<path d="M920 4021 c0 -5 5 -13 10 -16 6 -3 10 -2 10 4 0 5 -4 13 -10 16 -5 3
-10 2 -10 -4z"/>
<path d="M1221 4003 c7 -12 15 -20 18 -17 3 2 -3 12 -13 22 -17 16 -18 16 -5
-5z"/>
<path d="M895 4000 c3 -5 8 -10 11 -10 2 0 4 5 4 10 0 6 -5 10 -11 10 -5 0 -7
-4 -4 -10z"/>
<path d="M1386 3995 c-11 -8 -15 -15 -9 -15 6 0 16 7 23 15 16 19 11 19 -14 0z"/>
<path d="M3570 4001 c0 -5 7 -12 16 -15 14 -5 15 -4 4 9 -14 17 -20 19 -20 6z"/>
<path d="M3760 3980 c-9 -6 -10 -10 -3 -10 6 0 15 5 18 10 8 12 4 12 -15 0z"/>
<path d="M4160 3986 c0 -2 7 -7 16 -10 8 -3 12 -2 9 4 -6 10 -25 14 -25 6z"/>
<path d="M3741 3944 c0 -11 3 -14 6 -6 3 7 2 16 -1 19 -3 4 -6 -2 -5 -13z"/>
<path d="M609 3893 c-13 -16 -12 -17 4 -4 9 7 17 15 17 17 0 8 -8 3 -21 -13z"/>
<path d="M713 3882 c-7 -4 -9 -13 -4 -21 6 -9 10 -7 14 8 3 12 4 21 4 21 -1 0
-7 -4 -14 -8z"/>
<path d="M1255 3880 c3 -5 8 -10 11 -10 2 0 4 5 4 10 0 6 -5 10 -11 10 -5 0
-7 -4 -4 -10z"/>
<path d="M675 3860 c3 -5 8 -10 11 -10 2 0 4 5 4 10 0 6 -5 10 -11 10 -5 0 -7
-4 -4 -10z"/>
<path d="M3990 3862 c0 -5 7 -15 15 -22 8 -7 15 -8 15 -2 0 5 -7 15 -15 22 -8
7 -15 8 -15 2z"/>
<path d="M740 3830 c0 -5 5 -10 11 -10 5 0 7 5 4 10 -3 6 -8 10 -11 10 -2 0
-4 -4 -4 -10z"/>
<path d="M3890 3819 c0 -5 5 -7 10 -4 6 3 10 8 10 11 0 2 -4 4 -10 4 -5 0 -10
-5 -10 -11z"/>
<path d="M3860 3805 c0 -8 2 -15 4 -15 2 0 6 7 10 15 3 8 1 15 -4 15 -6 0 -10
-7 -10 -15z"/>
<path d="M4345 3789 c-4 -6 -5 -12 -2 -15 2 -3 7 2 10 11 7 17 1 20 -8 4z"/>
<path d="M4356 3764 c-5 -14 -4 -15 9 -4 17 14 19 20 6 20 -5 0 -12 -7 -15
-16z"/>
<path d="M876 3728 c3 -5 10 -6 15 -3 13 9 11 12 -6 12 -8 0 -12 -4 -9 -9z"/>
<path d="M1040 3736 c0 -2 7 -9 15 -16 9 -7 15 -8 15 -2 0 5 -7 12 -15 16 -8
3 -15 4 -15 2z"/>
<path d="M4123 3728 c3 -9 1 -19 -6 -21 -7 -2 -9 -7 -6 -11 12 -13 28 19 17
34 -8 13 -9 12 -5 -2z"/>
<path d="M750 3696 c0 -2 8 -10 18 -17 15 -13 16 -12 3 4 -13 16 -21 21 -21
13z"/>
<path d="M4360 3670 c-8 -5 -10 -10 -5 -10 6 0 17 5 25 10 8 5 11 10 5 10 -5
0 -17 -5 -25 -10z"/>
<path d="M1030 3660 c0 -5 5 -10 11 -10 5 0 7 5 4 10 -3 6 -8 10 -11 10 -2 0
-4 -4 -4 -10z"/>
<path d="M4190 3616 c0 -2 7 -7 16 -10 8 -3 12 -2 9 4 -6 10 -25 14 -25 6z"/>
<path d="M4218 3593 c-10 -2 -18 -9 -18 -14 0 -6 10 -5 23 2 37 20 36 23 -5
12z"/>
<path d="M558 3583 c7 -3 16 -2 19 1 4 3 -2 6 -13 5 -11 0 -14 -3 -6 -6z"/>
<path d="M695 3500 c3 -5 8 -10 11 -10 2 0 4 5 4 10 0 6 -5 10 -11 10 -5 0 -7
-4 -4 -10z"/>
<path d="M4455 3470 c-3 -5 -1 -10 4 -10 6 0 11 5 11 10 0 6 -2 10 -4 10 -3 0
-8 -4 -11 -10z"/>
<path d="M4270 3380 c-8 -5 -10 -10 -5 -10 6 0 17 5 25 10 8 5 11 10 5 10 -5
0 -17 -5 -25 -10z"/>
<path d="M4457 3319 c7 -7 15 -10 18 -7 3 3 -2 9 -12 12 -14 6 -15 5 -6 -5z"/>
<path d="M776 3263 c-6 -14 -5 -15 5 -6 7 7 10 15 7 18 -3 3 -9 -2 -12 -12z"/>
<path d="M600 3160 c-12 -7 -10 -9 8 -7 12 0 22 5 22 9 0 11 -12 10 -30 -2z"/>
<path d="M4588 3133 c7 -3 16 -2 19 1 4 3 -2 6 -13 5 -11 0 -14 -3 -6 -6z"/>
<path d="M400 3050 c0 -5 5 -10 10 -10 6 0 10 5 10 10 0 6 -4 10 -10 10 -5 0
-10 -4 -10 -10z"/>
<path d="M289 3023 c-13 -16 -12 -17 4 -4 9 7 17 15 17 17 0 8 -8 3 -21 -13z"/>
<path d="M515 3020 c27 -12 43 -12 25 0 -8 5 -22 9 -30 9 -10 0 -8 -3 5 -9z"/>
<path d="M4291 2994 c0 -11 3 -14 6 -6 3 7 2 16 -1 19 -3 4 -6 -2 -5 -13z"/>
<path d="M4423 2973 c9 -2 23 -2 30 0 6 3 -1 5 -18 5 -16 0 -22 -2 -12 -5z"/>
<path d="M370 2946 c0 -2 9 -6 20 -9 11 -3 18 -1 14 4 -5 9 -34 13 -34 5z"/>
<path d="M4358 2883 c7 -3 16 -2 19 1 4 3 -2 6 -13 5 -11 0 -14 -3 -6 -6z"/>
<path d="M4638 2513 c7 -3 16 -2 19 1 4 3 -2 6 -13 5 -11 0 -14 -3 -6 -6z"/>
<path d="M4491 2394 c0 -11 3 -14 6 -6 3 7 2 16 -1 19 -3 4 -6 -2 -5 -13z"/>
<path d="M240 2341 c0 -6 4 -13 10 -16 6 -3 7 1 4 9 -7 18 -14 21 -14 7z"/>
<path d="M466 2333 c-6 -14 -5 -15 5 -6 7 7 10 15 7 18 -3 3 -9 -2 -12 -12z"/>
<path d="M4500 2341 c0 -6 4 -13 10 -16 6 -3 7 1 4 9 -7 18 -14 21 -14 7z"/>
<path d="M365 1750 c-3 -5 -1 -10 4 -10 6 0 11 5 11 10 0 6 -2 10 -4 10 -3 0
-8 -4 -11 -10z"/>
<path d="M495 1690 c-4 -6 -10 -8 -15 -5 -5 3 -11 1 -14 -4 -8 -13 22 -7 36 7
7 7 9 12 6 12 -4 0 -10 -5 -13 -10z"/>
<path d="M4135 1679 c-4 -6 -5 -12 -2 -15 2 -3 7 2 10 11 7 17 1 20 -8 4z"/>
<path d="M715 1660 c-3 -6 1 -7 9 -4 18 7 21 14 7 14 -6 0 -13 -4 -16 -10z"/>
<path d="M4166 1595 c10 -8 23 -15 28 -15 6 0 1 7 -10 15 -10 8 -23 15 -28 15
-6 0 -1 -7 10 -15z"/>
<path d="M554 1587 c-4 -7 -4 -9 1 -5 4 4 14 3 22 -3 8 -7 13 -8 13 -1 0 15
-28 23 -36 9z"/>
<path d="M390 1566 c0 -8 4 -17 9 -20 5 -4 7 3 4 14 -6 23 -13 26 -13 6z"/>
<path d="M4585 1559 c-4 -6 -5 -12 -2 -15 2 -3 7 2 10 11 7 17 1 20 -8 4z"/>
<path d="M748 1533 c7 -3 16 -2 19 1 4 3 -2 6 -13 5 -11 0 -14 -3 -6 -6z"/>
<path d="M4270 1530 c0 -5 7 -7 15 -4 8 4 15 8 15 10 0 2 -7 4 -15 4 -8 0 -15
-4 -15 -10z"/>
<path d="M740 1512 c1 -4 16 -17 35 -29 27 -17 32 -18 24 -5 -11 18 -59 45
-59 34z"/>
<path d="M818 1493 c6 -2 9 -10 6 -15 -4 -7 -2 -8 4 -4 18 11 14 26 -5 25 -11
0 -13 -3 -5 -6z"/>
<path d="M490 1370 c0 -5 5 -10 11 -10 5 0 7 5 4 10 -3 6 -8 10 -11 10 -2 0
-4 -4 -4 -10z"/>
<path d="M946 1282 c-3 -5 1 -9 9 -9 8 0 12 4 9 9 -3 4 -7 8 -9 8 -2 0 -6 -4
-9 -8z"/>
<path d="M3990 1277 c0 -3 12 -12 26 -22 15 -9 23 -12 20 -6 -7 11 -46 35 -46
28z"/>
<path d="M1145 1260 c3 -5 8 -10 11 -10 2 0 4 5 4 10 0 6 -5 10 -11 10 -5 0
-7 -4 -4 -10z"/>
<path d="M1185 1229 c-4 -6 -5 -12 -2 -15 2 -3 7 2 10 11 7 17 1 20 -8 4z"/>
<path d="M605 1200 c3 -5 8 -10 11 -10 2 0 4 5 4 10 0 6 -5 10 -11 10 -5 0 -7
-4 -4 -10z"/>
<path d="M807 1169 c7 -7 15 -10 18 -7 3 3 -2 9 -12 12 -14 6 -15 5 -6 -5z"/>
<path d="M3805 1130 c3 -5 8 -10 11 -10 2 0 4 5 4 10 0 6 -5 10 -11 10 -5 0
-7 -4 -4 -10z"/>
<path d="M3685 1090 c10 -11 20 -20 23 -20 3 0 -3 9 -13 20 -10 11 -20 20 -23
20 -3 0 3 -9 13 -20z"/>
<path d="M1035 1080 c-3 -6 1 -7 9 -4 18 7 21 14 7 14 -6 0 -13 -4 -16 -10z"/>
<path d="M1150 1039 c0 -5 5 -7 10 -4 6 3 10 8 10 11 0 2 -4 4 -10 4 -5 0 -10
-5 -10 -11z"/>
<path d="M4148 1013 c6 -2 18 -2 25 0 6 3 1 5 -13 5 -14 0 -19 -2 -12 -5z"/>
<path d="M705 1001 c-3 -5 -2 -12 3 -15 5 -3 9 1 9 9 0 17 -3 19 -12 6z"/>
<path d="M1300 969 c0 -5 5 -7 10 -4 6 3 10 8 10 11 0 2 -4 4 -10 4 -5 0 -10
-5 -10 -11z"/>
<path d="M914 949 c-19 -22 -19 -22 4 -8 12 8 22 17 22 21 0 12 -6 9 -26 -13z"/>
<path d="M3666 922 c-2 -4 -1 -14 3 -21 6 -10 10 -9 14 3 6 16 -8 32 -17 18z"/>
<path d="M1081 887 c-13 -21 -12 -21 5 -5 10 10 16 20 13 22 -3 3 -11 -5 -18
-17z"/>
<path d="M3330 899 c0 -5 5 -7 10 -4 6 3 10 8 10 11 0 2 -4 4 -10 4 -5 0 -10
-5 -10 -11z"/>
<path d="M3850 893 c0 -4 5 -15 10 -23 8 -13 10 -13 10 2 0 9 -4 20 -10 23 -5
3 -10 3 -10 -2z"/>
<path d="M1221 864 c0 -11 3 -14 6 -6 3 7 2 16 -1 19 -3 4 -6 -2 -5 -13z"/>
<path d="M3705 869 c-4 -6 -5 -12 -2 -15 2 -3 7 2 10 11 7 17 1 20 -8 4z"/>
<path d="M1968 823 c7 -3 16 -2 19 1 4 3 -2 6 -13 5 -11 0 -14 -3 -6 -6z"/>
<path d="M3590 801 c5 -11 15 -23 21 -27 6 -3 3 5 -6 20 -20 30 -30 35 -15 7z"/>
<path d="M3775 790 c3 -5 8 -10 11 -10 2 0 4 5 4 10 0 6 -5 10 -11 10 -5 0 -7
-4 -4 -10z"/>
<path d="M3796 762 c-2 -4 4 -8 14 -8 10 0 16 4 14 8 -3 4 -9 8 -14 8 -5 0
-11 -4 -14 -8z"/>
<path d="M2010 749 c0 -5 11 -9 25 -9 14 0 25 2 25 4 0 2 -11 6 -25 8 -14 3
-25 1 -25 -3z"/>
<path d="M2108 733 c7 -3 16 -2 19 1 4 3 -2 6 -13 5 -11 0 -14 -3 -6 -6z"/>
<path d="M1995 700 c-3 -5 -1 -10 4 -10 6 0 11 5 11 10 0 6 -2 10 -4 10 -3 0
-8 -4 -11 -10z"/>
<path d="M2648 703 c6 -2 18 -2 25 0 6 3 1 5 -13 5 -14 0 -19 -2 -12 -5z"/>
<path d="M1047 689 c7 -7 15 -10 18 -7 3 3 -2 9 -12 12 -14 6 -15 5 -6 -5z"/>
<path d="M2248 693 c7 -3 16 -2 19 1 4 3 -2 6 -13 5 -11 0 -14 -3 -6 -6z"/>
<path d="M2221 674 c0 -11 3 -14 6 -6 3 7 2 16 -1 19 -3 4 -6 -2 -5 -13z"/>
<path d="M1863 665 c-3 -9 -3 -18 -1 -21 3 -3 8 4 11 16 6 23 -1 27 -10 5z"/>
<path d="M2102 600 c0 -14 2 -19 5 -12 2 6 2 18 0 25 -3 6 -5 1 -5 -13z"/>
<path d="M3768 613 c7 -3 16 -2 19 1 4 3 -2 6 -13 5 -11 0 -14 -3 -6 -6z"/>
<path d="M1772 525 c0 -16 2 -22 5 -12 2 9 2 23 0 30 -3 6 -5 -1 -5 -18z"/>
<path d="M3446 535 c-9 -26 -7 -32 5 -12 6 10 9 21 6 23 -2 3 -7 -2 -11 -11z"/>
<path d="M1941 504 c0 -11 3 -14 6 -6 3 7 2 16 -1 19 -3 4 -6 -2 -5 -13z"/>
<path d="M2221 504 c0 -11 3 -14 6 -6 3 7 2 16 -1 19 -3 4 -6 -2 -5 -13z"/>
<path d="M2185 500 c3 -5 8 -10 11 -10 2 0 4 5 4 10 0 6 -5 10 -11 10 -5 0 -7
-4 -4 -10z"/>
<path d="M1941 394 c0 -11 3 -14 6 -6 3 7 2 16 -1 19 -3 4 -6 -2 -5 -13z"/>
<path d="M1901 374 c0 -11 3 -14 6 -6 3 7 2 16 -1 19 -3 4 -6 -2 -5 -13z"/>
<path d="M2051 344 c0 -11 3 -14 6 -6 3 7 2 16 -1 19 -3 4 -6 -2 -5 -13z"/>
<path d="M2285 260 c-3 -5 -2 -10 4 -10 5 0 13 5 16 10 3 6 2 10 -4 10 -5 0
-13 -4 -16 -10z"/>
<path d="M2818 183 c7 -3 16 -2 19 1 4 3 -2 6 -13 5 -11 0 -14 -3 -6 -6z"/>
</g>
</svg>
